<?xml version="1.0" encoding="UTF-8"?>
<svg width="340px" height="340px" viewBox="0 0 340 340" version="1.1" xmlns="http://www.w3.org/2000/svg" xmlns:xlink="http://www.w3.org/1999/xlink">
    <!-- Generator: Sketch 57.1 (83088) - https://sketch.com -->
    <title>Upvid Favicon</title>
    <desc>Created with Sketch.</desc>
    <defs>
        <path d="M107.1,130.8 C99.1999605,130.8 92.3750287,129.275015 86.625,126.225 C80.8749713,123.174985 76.4500155,119.025026 73.35,113.775 C70.2499845,108.524974 68.7,102.700032 68.7,96.3 L68.7,52.05 L91.95,52.05 L91.95,95.7 C91.95,98.4000135 92.5999935,100.874989 93.9,103.125 C95.2,105.375011 96.9749887,107.174993 99.225,108.525 C101.475011,109.875007 104.049985,110.55 106.95,110.55 C109.750014,110.55 112.274989,109.875007 114.525,108.525 C116.775011,107.174993 118.549993,105.375011 119.85,103.125 C121.150006,100.874989 121.8,98.4000135 121.8,95.7 L121.8,52.05 L145.05,52.05 L145.05,96.3 C145.05,102.700032 143.550015,108.524974 140.55,113.775 C137.549985,119.025026 133.225028,123.174985 127.575,126.225 C121.924972,129.275015 115.10004,130.8 107.1,130.8 Z" id="path-1"></path>
    </defs>
    <g id="Upvid-Favicon" stroke="none" stroke-width="1" fill="none" fill-rule="evenodd">
        <rect fill="#0A6C74" x="0" y="0" width="340" height="340"></rect>
        <g id="Group" transform="translate(16.000000, 68.000000)">
            <g id="Arrow" transform="translate(0.000000, 5.000000)" fill="#FFFFFF">
                <g id="UpArrow" transform="translate(162.000000, 0.076519)">
                    <path d="M81.1466827,8.93184506 L81.6076042,9.23759945 C88.9174838,14.086641 90.9123872,23.9433942 86.0633456,31.2532738 C85.9146998,31.4773558 85.7603873,31.6976268 85.6005574,31.9138738 L37.4550419,97.0539052 C32.0738804,104.334522 21.9309138,106.120546 14.3865063,101.11593 L13.9255848,100.810175 C6.61570516,95.9611338 4.62080181,86.1043806 9.4698434,78.794501 C9.61848924,78.570419 9.77280171,78.3501479 9.93263158,78.133901 L58.0781471,12.9938696 C63.4593086,5.7132532 73.6022752,3.9272283 81.1466827,8.93184506 Z" id="Rectangle"></path>
                    <path d="M63.9255848,9.23759945 L64.3865063,8.93184506 C71.9309138,3.9272283 82.0738804,5.7132532 87.4550419,12.9938696 L135.600557,78.133901 C140.814438,85.1881897 139.322493,95.1335062 132.268204,100.347387 C132.051957,100.507217 131.831686,100.66153 131.607604,100.810175 L131.146683,101.11593 C123.602275,106.120546 113.459309,104.334522 108.078147,97.0539052 L59.9326316,31.9138738 C54.7187506,24.8595851 56.2106959,14.9142686 63.2649847,9.70038763 C63.4812317,9.54055776 63.7015027,9.38624529 63.9255848,9.23759945 Z" id="Rectangle"></path>
                    <rect id="Rectangle" x="56.7665945" y="5.7607295" width="31" height="190.421053" rx="15.5"></rect>
                </g>
                <rect id="Rectangle" x="0" y="159.234414" width="250" height="37.8947368" rx="18.9473684"></rect>
            </g>
            <g id="u" fill-rule="nonzero">
                <use fill="#49494A" xlink:href="#path-1"></use>
                <use fill="#FFFFFF" xlink:href="#path-1"></use>
            </g>
        </g>
    </g>
</svg>