<?xml version="1.0" encoding="UTF-8"?>
<svg width="569px" height="205px" viewBox="0 0 569 205" version="1.1" xmlns="http://www.w3.org/2000/svg" xmlns:xlink="http://www.w3.org/1999/xlink">
    <!-- Generator: Sketch 57.1 (83088) - https://sketch.com -->
    <title>Upvid Logo</title>
    <desc>Created with Sketch.</desc>
    <defs>
        <path d="M69.1,173.8 C61.1999605,173.8 54.3750287,172.275015 48.625,169.225 C42.8749713,166.174985 38.4500155,162.025026 35.35,156.775 C32.2499845,151.524974 30.7,145.700032 30.7,139.3 L30.7,95.05 L53.95,95.05 L53.95,138.7 C53.95,141.400014 54.5999935,143.874989 55.9,146.125 C57.2,148.375011 58.9749888,150.174993 61.225,151.525 C63.4750113,152.875007 66.0499855,153.55 68.95,153.55 C71.750014,153.55 74.2749888,152.875007 76.525,151.525 C78.7750113,150.174993 80.5499935,148.375011 81.85,146.125 C83.1500065,143.874989 83.8,141.400014 83.8,138.7 L83.8,95.05 L107.05,95.05 L107.05,139.3 C107.05,145.700032 105.550015,151.524974 102.55,156.775 C99.549985,162.025026 95.2250282,166.174985 89.575,169.225 C83.9249717,172.275015 77.10004,173.8 69.1,173.8 Z M165.050031,93.25 C171.550063,93.25 177.325005,94.24999 182.375031,96.25 C187.425056,98.25001 191.725013,101.124981 195.275031,104.875 C198.825048,108.625019 201.550021,113.049974 203.450031,118.15 C205.35004,123.250026 206.300031,128.79997 206.300031,134.8 C206.300031,142.600039 204.725046,149.399971 201.575031,155.2 C198.425015,161.000029 194.100058,165.549983 188.600031,168.85 C183.100003,172.150016 176.700067,173.8 169.400031,173.8 C166.300015,173.8 163.375044,173.400004 160.625031,172.6 C157.875017,171.799996 155.375042,170.625008 153.125031,169.075 C150.875019,167.524992 149.000038,165.70001 147.500031,163.6 L147.050031,163.6 L147.050031,204.55 L123.800031,204.55 L123.800031,134.95 C123.800031,126.549958 125.500014,119.200031 128.900031,112.9 C132.300048,106.599968 137.1,101.750017 143.300031,98.35 C149.500062,94.949983 156.749989,93.25 165.050031,93.25 Z M165.050031,113.35 C161.450013,113.35 158.325044,114.224991 155.675031,115.975 C153.025017,117.725009 151.000031,120.124985 149.600031,123.175 C148.200024,126.225015 147.500031,129.649981 147.500031,133.45 C147.500031,137.250019 148.200024,140.649985 149.600031,143.65 C151.000031,146.650015 153.025017,149.024991 155.675031,150.775 C158.325044,152.525009 161.450013,153.4 165.050031,153.4 C168.650049,153.4 171.750018,152.525009 174.350031,150.775 C176.950044,149.024991 178.975023,146.650015 180.425031,143.65 C181.875038,140.649985 182.600031,137.250019 182.600031,133.45 C182.600031,129.649981 181.875038,126.225015 180.425031,123.175 C178.975023,120.124985 176.950044,117.725009 174.350031,115.975 C171.750018,114.224991 168.650049,113.35 165.050031,113.35 Z M252.149988,173.8 C247.549965,173.8 243.350007,172.600012 239.549988,170.2 C235.749969,167.799988 233.149995,164.550021 231.749988,160.45 L209.849988,95.05 L235.349988,95.05 L250.799988,149.95 C250.999989,150.350002 251.224987,150.649999 251.474988,150.85 C251.724989,151.05 251.999986,151.15 252.299988,151.15 C252.69999,151.15 253.024987,151.05 253.274988,150.85 C253.524989,150.649999 253.699987,150.350002 253.799988,149.95 L269.549988,95.05 L294.449988,95.05 L272.549988,160.45 C271.149981,164.550021 268.575007,167.799988 264.824988,170.2 C261.074969,172.600012 256.850011,173.8 252.149988,173.8 Z M304.649915,172 L304.649915,95.05 L328.049915,95.05 L328.049915,172 L304.649915,172 Z M316.349915,86.35 C312.649896,86.35 309.449928,85.0000135 306.749915,82.3 C304.049901,79.5999865 302.699915,76.4000185 302.699915,72.7 C302.699915,68.9999815 304.049901,65.7750137 306.749915,63.025 C309.449928,60.2749863 312.649896,58.9 316.349915,58.9 C320.049933,58.9 323.249901,60.2749863 325.949915,63.025 C328.649928,65.7750137 329.999915,68.9999815 329.999915,72.7 C329.999915,76.4000185 328.649928,79.5999865 325.949915,82.3 C323.249901,85.0000135 320.049933,86.35 316.349915,86.35 Z M382.849884,173.8 C376.349852,173.8 370.574909,172.80001 365.524884,170.8 C360.474859,168.79999 356.174902,165.925019 352.624884,162.175 C349.074866,158.424981 346.349894,154.000025 344.449884,148.9 C342.549875,143.799975 341.599884,138.25003 341.599884,132.25 C341.599884,124.449961 343.174868,117.650029 346.324884,111.85 C349.4749,106.049971 353.799857,101.500017 359.299884,98.2 C364.799912,94.8999835 371.199848,93.25 378.499884,93.25 C381.5999,93.25 384.52487,93.649996 387.274884,94.45 C390.024898,95.250004 392.524873,96.4249923 394.774884,97.975 C397.024895,99.5250078 398.899877,101.349989 400.399884,103.45 L400.849884,103.45 L400.849884,62.5 L424.099884,62.5 L424.099884,132.1 C424.099884,140.500042 422.399901,147.849968 418.999884,154.15 C415.599867,160.450031 410.799915,165.299983 404.599884,168.7 C398.399853,172.100017 391.149926,173.8 382.849884,173.8 Z M382.849884,153.7 C386.449902,153.7 389.574871,152.825009 392.224884,151.075 C394.874897,149.324991 396.899877,146.925015 398.299884,143.875 C399.699891,140.824985 400.399884,137.400019 400.399884,133.6 C400.399884,129.799981 399.699891,126.400015 398.299884,123.4 C396.899877,120.399985 394.874897,118.025009 392.224884,116.275 C389.574871,114.524991 386.449902,113.65 382.849884,113.65 C379.249866,113.65 376.149897,114.524991 373.549884,116.275 C370.949871,118.025009 368.924891,120.399985 367.474884,123.4 C366.024877,126.400015 365.299884,129.799981 365.299884,133.6 C365.299884,137.400019 366.024877,140.824985 367.474884,143.875 C368.924891,146.925015 370.949871,149.324991 373.549884,151.075 C376.149897,152.825009 379.249866,153.7 382.849884,153.7 Z" id="path-1"></path>
    </defs>
    <g id="Page-1" stroke="none" stroke-width="1" fill="none" fill-rule="evenodd">
        <g id="Green-Upvid-Logo" transform="translate(-20.000000, -36.000000)">
            <g id="Upvid-Logo" transform="translate(20.000000, -2.000000)">
                <g id="upvid" fill-rule="nonzero">
                    <use fill="#49494A" xlink:href="#path-1"></use>
                    <use fill="#0A6C74" xlink:href="#path-1"></use>
                </g>
                <g id="Arrow" transform="translate(0.000000, 31.919230)" fill="#0A6C74">
                    <path d="M510.84101,9.75079942 C518.531898,15.1360172 520.401013,25.7362955 515.015795,33.4271836 L466.835374,102.235955 C461.450157,109.926843 450.849878,111.795958 443.15899,106.410741 C435.468102,101.025523 433.598987,90.4252446 438.984205,82.7343565 L487.164626,13.9255848 C492.549843,6.23469666 503.150122,4.3655816 510.84101,9.75079942 Z" id="Rectangle"></path>
                    <path d="M493.15899,9.75079942 C500.849878,4.3655816 511.450157,6.23469666 516.835374,13.9255848 L565.015795,82.7343565 C570.401013,90.4252446 568.531898,101.025523 560.84101,106.410741 C553.150122,111.795958 542.549843,109.926843 537.164626,102.235955 L488.984205,33.4271836 C483.598987,25.7362955 485.468102,15.1360172 493.15899,9.75079942 Z" id="Rectangle"></path>
                    <rect id="Rectangle" x="0" y="171.08077" width="517" height="40" rx="20"></rect>
                    <rect id="Rectangle" x="486" y="6.08077003" width="31" height="201" rx="15.5"></rect>
                </g>
            </g>
        </g>
    </g>
</svg>